<svg id="Layer_1" data-name="Layer 1" xmlns="http://www.w3.org/2000/svg" viewBox="0 0 47 30.29"><defs><style>.cls-1{fill:#545250;}</style></defs><title>Artboard 7</title><path class="cls-1" d="M23.84,8.33c8,.08,15.06,0,20,0a3,3,0,0,0,2.71-4.1c-.09-.22-.19-.43-.28-.63a2.92,2.92,0,0,0-.54-.76L44,1a3,3,0,0,0-2.1-.9C22,0,9.06.34,5,0A2.92,2.92,0,0,0,2.75.85L1.26,2.33a3.65,3.65,0,0,0-.63.77l-.21.36A2.94,2.94,0,0,0,2.89,7.91C8,8,15.55,8.24,23.84,8.33Z"/><rect class="cls-1" y="12.39" width="47" height="6" rx="1.8"/><path class="cls-1" d="M22.94,22c-8-.09-15.06,0-20,0A3,3,0,0,0,.26,26c.09.22.19.43.28.63a2.92,2.92,0,0,0,.54.76l1.75,1.81a2.92,2.92,0,0,0,2.09.89c19.83.18,32.8-.18,36.81.16a2.94,2.94,0,0,0,2.3-.84L45.52,28a4,4,0,0,0,.63-.77l.21-.36a2.94,2.94,0,0,0-2.46-4.45C38.77,22.29,31.23,22,22.94,22Z"/></svg>
