<svg id="Layer_1" data-name="Layer 1" xmlns="http://www.w3.org/2000/svg" viewBox="0 0 100.68 76.01"><defs><style>.cls-1{fill:#545250;}.cls-2{fill:#ba955a;}.cls-3{fill:none;stroke:#ba955a;stroke-miterlimit:10;}</style></defs><title>Artboard 5</title><path class="cls-1" d="M35,59C19.54,59,6.29,58.67.76,58.18A19.93,19.93,0,0,0,0,63.57v3.36A9.08,9.08,0,0,0,9.08,76H60.92A9.08,9.08,0,0,0,70,66.93a24.81,24.81,0,0,0-1.59-8.68C62.46,58.7,49.74,59,35,59Z"/><path class="cls-1" d="M54.58,31.36c6.18,13,11.69,23.85,14.18,29.29a24.35,24.35,0,0,0,3.15-4.43l3.56-6.42c-20-25.5-22.18-46.14-22.33-48l-7-1.37a19.62,19.62,0,0,0-6.3-.23C42.51,5.3,48,17.54,54.58,31.36Z"/><path class="cls-1" d="M80.25,41.16l3.53-6.37C68.53,19.67,70.11,5.66,70.18,5.12l-7.9-1.56C62.46,6,64.54,27.77,80.25,41.16Z"/><path class="cls-1" d="M89.81,26.29l1.33-2.41A11.9,11.9,0,0,0,83,6.44l-3.61-.71A24.47,24.47,0,0,0,89.81,26.29Z"/><path class="cls-2" d="M97.09,18.29c-3.24,1.55-4.5-1.32-6.17-4.81s-3.09-6.28.15-7.82A6.76,6.76,0,0,1,100,9.18,6.75,6.75,0,0,1,97.09,18.29Z"/><path class="cls-2" d="M97,23.88c-1,.48-4-3.79-6.75-9.52S86.09,3.6,87.09,3.12s2,4.2,4.74,9.93S98,23.41,97,23.88Z"/><path class="cls-3" d="M12.5,51.72c-1.9-4.51-.47-6,1-6.42a.76.76,0,0,0,.33-1.38l-2.59-3.64"/><path class="cls-3" d="M30.5,38.72c-1.9-4.51-.47-6,1-6.42a.76.76,0,0,0,.33-1.38l-2.59-3.64"/><path class="cls-3" d="M52.5,51.72c-1.9-4.51-.47-6,1-6.42a.76.76,0,0,0,.33-1.38l-2.59-3.64"/></svg>
