<svg id="Layer_1" data-name="Layer 1" xmlns="http://www.w3.org/2000/svg" viewBox="0 0 36.64 36.4"><defs><style>.cls-1{fill:#545250;}</style></defs><title>Artboard 10</title><path class="cls-1" d="M22.56,20c5.35-5.93,10-11.29,13.23-15A2.94,2.94,0,0,0,34.51.31L33.85.1a3.24,3.24,0,0,0-.93-.1L30.41.12a3,3,0,0,0-2.06,1C15.11,15.85,6.79,25.81,3.89,28.6A2.9,2.9,0,0,0,3,30.88L3.12,33a3.57,3.57,0,0,0,.16,1c.05.14.09.27.13.4a2.94,2.94,0,0,0,5,1.1C11.84,31.66,17,26.17,22.56,20Z"/><path class="cls-1" d="M20.11,14.05C14.13,8.76,8.73,4.18,5,1A2.94,2.94,0,0,0,.3,2.28c-.08.23-.14.45-.2.66A2.66,2.66,0,0,0,0,3.87L.14,6.38a3,3,0,0,0,1,2.05C16,21.54,26.05,29.77,28.86,32.65a3,3,0,0,0,2.28.87l2.1-.15a3.28,3.28,0,0,0,1-.17l.39-.13a2.93,2.93,0,0,0,1.06-5C31.85,24.67,26.32,19.55,20.11,14.05Z"/></svg>
